<svg version="1.1" id="Layer_1" xmlns="http://www.w3.org/2000/svg" xmlns:xlink="http://www.w3.org/1999/xlink" x="0px" y="0px"
	 width="100%" viewBox="0 0 268 185" enable-background="new 0 0 268 185" xml:space="preserve">
<path fill="#000000" opacity="1.000000" stroke="none" 
	d="
M150.000000,1.000000 
	C189.646683,1.000000 229.293381,1.000000 268.970032,1.000000 
	C268.970032,62.615620 268.970032,124.231255 268.970032,185.923447 
	C179.762756,185.923447 90.525421,185.923447 1.144047,185.923447 
	C1.144047,124.333542 1.144047,62.666828 1.144047,1.000000 
	C38.099880,1.000000 75.081284,1.000000 112.904770,1.233118 
	C113.471695,1.983433 113.196541,2.500629 112.607986,3.037612 
	C111.882133,3.121186 111.469696,3.184973 110.795998,3.212222 
	C110.331490,3.448338 110.128227,3.720993 109.723221,4.030191 
	C109.521469,4.066734 109.143036,4.224686 108.777328,4.167344 
	C106.913063,4.741658 105.414497,5.373314 103.703171,6.045096 
	C103.490410,6.085224 103.080750,6.225542 102.813362,6.186316 
	C102.339783,6.425271 102.133591,6.703452 101.725700,7.025905 
	C101.524002,7.070177 101.138977,7.219588 100.802551,7.198988 
	C99.582214,7.792359 98.698303,8.406329 97.606964,9.043661 
	C97.399551,9.067024 97.011620,9.221216 96.769936,9.187685 
	C96.194344,9.307384 96.026413,9.567683 95.982109,9.933121 
	C95.939766,9.931188 95.934212,10.015780 95.613968,10.030275 
	C94.512589,10.685882 93.731461,11.326994 92.709404,12.026747 
	C92.468475,12.085387 92.003677,12.258325 91.766953,12.220181 
	C91.204239,12.332651 91.036743,12.587443 90.987183,12.944914 
	C90.946617,12.943414 90.942177,13.024475 90.712128,13.074053 
	C90.185020,13.296557 90.030357,13.554747 89.755005,13.987261 
	C89.317917,14.139674 89.143921,14.203023 88.757553,14.222321 
	C88.231262,14.299310 88.089111,14.527336 87.851807,15.001476 
	C87.342918,15.455338 87.100937,15.770072 86.644691,16.127087 
	C86.166473,16.340979 86.020432,16.583645 85.709709,17.020462 
	C84.956734,17.535982 84.486359,17.928404 83.713821,18.336964 
	C82.895721,18.959984 82.379784,19.566868 81.669754,20.190109 
	C81.215355,20.353180 81.108963,20.574169 81.055420,20.876671 
	C80.954353,20.883909 80.939667,21.086037 80.646103,21.168474 
	C79.552711,22.166605 78.752884,23.082298 77.672028,24.112423 
	C76.947060,25.099916 76.503105,25.972982 75.750992,26.985111 
	C74.620171,28.398239 73.797493,29.672302 72.698517,31.077732 
	C72.252899,31.785313 72.083572,32.361530 71.605484,33.097786 
	C58.063549,56.163166 58.573116,78.743095 72.939972,101.328239 
	C73.648926,102.448486 74.318565,103.236328 74.996902,104.009384 
	C75.005585,103.994591 74.971771,104.000580 75.038757,104.260712 
	C75.402588,104.702278 75.699425,104.883713 75.998886,105.031723 
	C76.001511,104.998306 75.934494,105.000412 76.019928,105.265129 
	C76.406410,105.735786 76.707451,105.941727 77.056534,106.383095 
	C77.104568,106.618523 77.325905,107.045067 77.323280,107.265808 
	C77.485901,107.755249 77.723679,107.918091 78.017990,107.985428 
	C78.001976,107.995773 78.028221,107.966476 78.069908,108.231964 
	C78.409554,108.669891 78.707504,108.842331 79.006783,109.002434 
	C79.008102,108.990097 78.983772,108.995087 79.058044,109.242294 
	C79.420349,109.654160 79.708389,109.818817 79.995056,109.993286 
	C79.993683,110.003113 80.012802,109.999016 80.142517,110.331726 
	C82.591805,113.741844 84.904419,113.814148 87.581619,110.952568 
	C90.975334,107.325134 94.742386,104.034164 97.974205,100.276253 
	C98.891525,99.209618 99.229721,96.648697 98.593048,95.411316 
	C95.556786,89.510345 92.093277,83.829201 88.833183,77.994766 
	C88.884621,77.919678 88.637924,77.730614 88.761269,77.465668 
	C88.589066,76.781738 88.293518,76.362747 87.944824,75.719757 
	C87.891670,75.495758 87.756332,75.055664 87.843216,74.647614 
	C87.307098,66.161392 86.684090,58.083210 86.032410,50.002472 
	C86.003738,49.999912 86.034401,50.048645 86.375847,49.841278 
	C87.834312,45.085136 88.951332,40.536366 90.030823,35.990036 
	C89.993294,35.992481 89.998001,36.067543 90.265396,35.958771 
	C90.625458,35.497818 90.718124,35.145638 90.872818,34.663124 
	C90.934853,34.532791 90.925064,34.244278 91.232285,34.036945 
	C92.708862,31.223623 93.878204,28.617632 95.022888,26.004059 
	C94.998238,25.996475 95.018738,26.043819 95.335373,25.914343 
	C101.870300,17.537355 109.337410,10.849140 119.384598,6.896281 
	C120.438507,6.461366 121.197327,6.144159 122.390923,5.902436 
	C124.872643,5.935336 126.919594,5.892753 129.333984,5.808357 
	C136.301559,5.788507 142.933624,5.783355 148.939621,9.074241 
	C153.012146,11.305717 156.954010,13.775627 161.056732,16.395622 
	C161.717545,17.116796 162.275940,17.581255 162.906677,18.396013 
	C173.110504,31.463898 177.859970,45.692684 177.208176,62.192406 
	C176.723526,74.461014 172.771637,85.039421 165.755737,94.645370 
	C163.448898,97.803825 163.575775,99.461166 167.091965,101.340302 
	C169.118103,103.459625 171.019394,105.274231 173.062653,107.371521 
	C174.442093,108.788162 175.679550,109.922104 177.064575,111.344337 
	C182.442688,116.195396 182.800980,110.021736 185.367065,107.914429 
	C186.777115,106.178436 187.893173,104.593315 189.300247,102.859848 
	C190.393936,101.470802 191.196625,100.230095 192.260452,98.862091 
	C192.693085,98.188072 192.864594,97.641373 193.254349,96.981453 
	C193.776688,96.650299 193.886490,96.359093 193.871246,95.770790 
	C193.940475,95.546959 194.035309,95.088089 194.335526,94.925400 
	C195.360596,93.152138 196.085449,91.541565 196.872391,89.719299 
	C196.934479,89.507614 196.996643,89.070801 197.296997,88.857872 
	C201.818893,79.411667 202.899826,69.583679 201.769379,59.716118 
	C201.116760,54.019539 198.679901,48.527370 197.020081,42.948330 
	C196.994064,42.953461 197.006134,43.005108 196.974609,42.637230 
	C195.630234,39.826389 194.317398,37.383430 192.966339,34.693260 
	C192.873428,34.288502 192.818771,34.130947 192.756073,33.738083 
	C192.574722,33.217278 192.324890,33.039051 191.995697,32.986122 
	C191.992859,33.004158 192.027740,32.993607 191.960861,32.648247 
	C187.159973,24.839876 181.696426,18.089672 173.589111,13.428918 
	C166.239746,8.280603 158.857651,3.938482 149.850464,2.618000 
	C149.795288,1.829902 149.897644,1.414951 150.000000,1.000000 
M138.403503,103.815269 
	C138.612167,103.550644 138.820831,103.286018 139.495712,102.946815 
	C139.495712,102.946815 139.939301,102.785179 140.666458,102.905220 
	C144.350739,100.289581 148.035019,97.673935 152.074127,94.389816 
	C153.367050,90.760658 154.890259,87.191658 155.860550,83.478203 
	C156.384399,81.473343 156.344879,78.952774 152.194809,79.059158 
	C151.764053,78.375290 150.937531,77.675995 150.963486,77.009926 
	C151.237961,69.966621 151.118561,63.094551 143.958984,56.851688 
	C142.185425,62.071663 140.669983,66.531990 138.829285,71.606621 
	C137.204773,73.370171 135.580276,75.133728 133.344269,77.195595 
	C130.449112,82.092873 126.780762,86.704582 124.841644,91.954948 
	C121.997528,99.655663 127.304466,105.250031 135.728073,103.962204 
	C136.171295,103.892548 136.614532,103.822884 137.469238,103.875259 
	C137.469238,103.875259 137.880630,103.747108 138.403503,103.815269 
M111.363853,68.242790 
	C111.302948,68.903450 111.242043,69.564102 111.067093,70.505104 
	C111.067093,70.505104 111.050842,70.807320 110.383011,71.212120 
	C110.217026,72.481400 110.051033,73.750679 109.240128,75.545242 
	C108.568359,81.570847 109.145981,87.384842 112.073288,93.385803 
	C112.378860,93.611526 112.684441,93.837257 112.993950,94.003754 
	C112.993950,94.003754 112.942535,94.033424 113.192101,94.659821 
	C115.191460,97.048172 117.190811,99.436523 119.190163,101.824875 
	C119.982651,101.608284 120.775146,101.391693 121.567635,101.175102 
	C120.233521,93.536522 121.324593,86.469490 125.644150,79.674339 
	C128.638641,75.490479 131.633148,71.306625 134.985062,66.496758 
	C139.889603,60.071930 144.735519,53.620094 145.040771,44.201038 
	C148.056351,35.562885 142.080750,23.179905 134.452560,22.298883 
	C133.933517,26.176949 133.414337,30.055956 132.948715,33.985744 
	C132.948715,33.985744 132.939789,33.912468 132.510925,34.115540 
	C132.650818,34.449791 132.790695,34.784042 132.767105,35.629700 
	C132.468353,36.069004 132.169617,36.508308 131.300766,37.330013 
	C128.827667,41.201061 126.354584,45.072109 123.441200,49.117558 
	C123.159103,49.307552 123.002472,49.571888 122.336250,50.182865 
	C118.876518,56.119614 115.416794,62.056358 112.004410,68.005783 
	C112.004410,68.005783 111.985603,67.960518 111.363853,68.242790 
z"/>
<path fill="#1D91CC" opacity="1.000000" stroke="none" 
	d="
M111.057251,3.248760 
	C111.469696,3.184973 111.882133,3.121186 112.891891,3.208977 
	C115.326134,2.573704 117.163071,1.786852 119.000000,1.000000 
	C119.750000,1.000000 120.500000,1.000000 121.624977,1.402385 
	C121.985352,3.145498 121.970749,4.486225 121.956146,5.826952 
	C121.197327,6.144159 120.438507,6.461366 119.040649,6.826785 
	C116.533546,7.192298 114.364357,7.011205 112.855408,7.922901 
	C108.774666,10.388465 104.974617,13.318612 101.053223,15.670187 
	C100.343529,13.263466 99.643837,11.251023 99.221848,9.102621 
	C100.046028,8.384304 100.592506,7.801946 101.138977,7.219588 
	C101.138977,7.219588 101.524002,7.070177 101.941223,6.939416 
	C102.633507,6.656773 102.874275,6.462401 103.080750,6.225542 
	C103.080750,6.225542 103.490410,6.085224 104.083359,6.053962 
	C106.165215,5.423362 107.654129,4.824025 109.143036,4.224687 
	C109.143036,4.224686 109.521469,4.066734 109.935036,3.944520 
	C110.618439,3.672668 110.854652,3.481487 111.057251,3.248760 
z"/>
<path fill="#2F89BD" opacity="1.000000" stroke="none" 
	d="
M122.390923,5.902436 
	C121.970749,4.486225 121.985352,3.145498 121.999977,1.402385 
	C130.020905,1.000000 138.041809,1.000000 146.628204,1.288047 
	C147.753906,2.129300 148.314117,2.682507 148.643066,3.394142 
	C147.569427,4.032832 146.727051,4.513094 145.575302,5.000839 
	C144.853378,5.012419 144.440796,5.016516 143.904892,4.726124 
	C142.524704,4.290528 141.267853,4.149422 139.558502,4.009739 
	C135.726196,4.624165 132.346359,5.237167 128.966537,5.850169 
	C126.919594,5.892753 124.872643,5.935336 122.390923,5.902436 
z"/>
<path fill="#2F89BD" opacity="1.000000" stroke="none" 
	d="
M118.571533,1.000000 
	C117.163071,1.786852 115.326134,2.573704 113.205292,3.189190 
	C113.196541,2.500629 113.471695,1.983433 113.373428,1.233118 
	C114.714355,1.000000 116.428719,1.000000 118.571533,1.000000 
z"/>
<path fill="#4075A6" opacity="1.000000" stroke="none" 
	d="
M148.874329,3.235715 
	C148.314117,2.682507 147.753906,2.129300 147.096832,1.288047 
	C147.750000,1.000000 148.500000,1.000000 149.625000,1.000000 
	C149.897644,1.414951 149.795288,1.829902 149.801849,2.681333 
	C149.910767,3.117813 149.813614,3.244560 149.578857,3.235864 
	C149.344086,3.227169 148.874329,3.235717 148.874329,3.235715 
z"/>
<path fill="#2D579A" opacity="1.000000" stroke="none" 
	d="
M193.036087,97.094666 
	C192.864594,97.641373 192.693085,98.188072 192.007172,98.988754 
	C190.981094,99.483727 190.469437,99.724724 189.796356,99.678932 
	C189.361496,98.791252 188.831192,98.181068 188.852524,97.590820 
	C189.294479,85.361626 189.806030,73.134979 190.284668,60.907066 
	C190.367676,58.786423 190.554901,56.645214 190.366043,54.542965 
	C189.659821,46.681118 188.817337,38.831509 188.270844,31.200394 
	C189.686401,31.946856 190.857071,32.470230 192.027740,32.993607 
	C192.027740,32.993607 191.992859,33.004158 192.111359,33.162674 
	C192.389954,33.553322 192.568039,33.770725 192.764099,33.973396 
	C192.818771,34.130947 192.873428,34.288502 192.994934,35.069885 
	C194.376556,38.130852 195.691345,40.567978 197.006134,43.005104 
	C197.006134,43.005108 196.994064,42.953461 197.018707,43.360390 
	C197.366333,46.485374 197.689316,49.203438 198.150696,52.126671 
	C198.492935,52.593224 198.726028,52.825218 198.992523,53.387550 
	C199.004364,54.466740 199.012054,55.186195 199.018097,56.271896 
	C199.346588,57.769768 199.676727,58.901402 200.013931,60.491253 
	C200.016296,64.626579 200.011597,68.303688 199.811707,72.274582 
	C199.416428,73.718346 199.216339,74.868324 199.007874,76.007111 
	C198.999496,75.995926 199.026764,76.004982 198.940125,76.118286 
	C198.740311,76.515930 198.788330,76.776588 198.993164,77.346130 
	C198.981705,78.122086 198.974670,78.565468 198.787781,79.163940 
	C198.379242,79.541565 198.179703,79.787727 198.009705,80.470947 
	C197.672272,83.613174 197.334457,86.341988 196.996643,89.070801 
	C196.996643,89.070801 196.934479,89.507614 196.568604,89.868156 
	C195.480240,91.848495 194.757782,93.468292 194.035309,95.088089 
	C194.035309,95.088089 193.940475,95.546959 193.716690,95.934914 
	C193.295288,96.553291 193.143005,96.810562 193.036087,97.094666 
z"/>
<path fill="#E6653D" opacity="1.000000" stroke="none" 
	d="
M151.719315,95.058304 
	C148.035019,97.673935 144.350739,100.289581 140.451813,102.582657 
	C140.493958,101.507767 140.750732,100.755440 141.373199,99.923965 
	C145.166214,99.215813 146.302902,97.309807 145.787537,93.796555 
	C145.365463,90.919388 145.810486,87.925262 145.710129,84.988487 
	C145.508041,79.074089 145.196320,73.163452 144.929840,67.251259 
	C144.388718,67.156975 143.847595,67.062691 143.306458,66.968407 
	C142.536697,68.303574 141.766937,69.638741 140.690094,70.978073 
	C139.973511,70.985603 139.564011,70.988953 139.154541,70.992310 
	C140.669983,66.531990 142.185425,62.071663 143.958984,56.851688 
	C151.118561,63.094551 151.237961,69.966621 150.963486,77.009926 
	C150.937531,77.675995 151.764053,78.375290 152.370697,79.431564 
	C152.270844,84.888748 151.995071,89.973526 151.719315,95.058304 
z"/>
<path fill="#1F72B5" opacity="1.000000" stroke="none" 
	d="
M123.881500,48.943153 
	C126.354584,45.072109 128.827667,41.201061 131.846725,37.391716 
	C133.083328,40.338398 134.143082,43.192726 134.385727,46.114899 
	C134.852249,51.733246 134.855911,57.390022 134.899933,63.347771 
	C134.338165,64.760658 133.928040,65.856628 133.237762,67.064011 
	C130.663177,69.782806 128.368759,72.390190 126.059296,74.560440 
	C126.248039,72.179016 126.570862,70.238579 126.633888,68.289726 
	C126.847412,61.687420 128.580902,54.851013 123.881500,48.943153 
z"/>
<path fill="#2B5A9B" opacity="1.000000" stroke="none" 
	d="
M135.051575,63.030861 
	C134.855911,57.390022 134.852249,51.733246 134.385727,46.114899 
	C134.143082,43.192726 133.083328,40.338398 132.131775,37.200520 
	C132.169617,36.508308 132.468353,36.069004 132.857346,35.072830 
	C132.944977,34.314796 132.942383,34.113632 132.939789,33.912468 
	C132.939789,33.912468 132.948715,33.985744 133.247604,33.837929 
	C134.859100,31.320480 136.171707,28.950850 137.871277,25.882618 
	C143.366547,31.651541 143.011002,38.372276 142.834167,45.340416 
	C140.135071,51.467243 137.593323,57.249050 135.051575,63.030861 
z"/>
<path fill="#139BD6" opacity="1.000000" stroke="none" 
	d="
M98.944145,9.238581 
	C99.643837,11.251023 100.343529,13.263466 100.807556,15.900059 
	C98.720840,19.697412 96.869789,22.870615 95.018738,26.043819 
	C95.018738,26.043819 94.998238,25.996475 94.686356,26.071537 
	C91.307800,28.029284 89.975540,30.650787 90.925064,34.244278 
	C90.925064,34.244278 90.934853,34.532791 90.702972,34.854908 
	C90.313393,35.473866 90.155701,35.770706 89.998001,36.067543 
	C89.998001,36.067543 89.993294,35.992481 89.732582,36.187691 
	C88.326050,40.938148 87.180222,45.493397 86.034401,50.048645 
	C86.034401,50.048645 86.003738,49.999912 85.803841,50.132511 
	C85.356407,50.512318 85.108864,50.759521 84.647110,51.004215 
	C84.432899,51.001705 84.002045,50.996796 83.978249,50.673435 
	C83.644630,49.561687 83.334816,48.773304 83.121796,47.622932 
	C83.733261,46.043530 84.403534,44.866928 84.735527,43.601574 
	C86.135284,38.266552 87.561478,32.932583 88.725914,27.543755 
	C89.525139,23.845072 88.960014,20.750536 84.087212,20.814960 
	C84.116249,19.834984 84.066116,19.077906 84.015991,18.320827 
	C84.486359,17.928404 84.956734,17.535982 85.887817,16.925114 
	C86.573776,16.544621 86.743919,16.337332 86.858955,16.084805 
	C87.100937,15.770072 87.342918,15.455338 88.019577,14.947527 
	C88.668625,14.636675 88.840515,14.473983 88.969925,14.266371 
	C89.143921,14.203023 89.317917,14.139674 89.939621,13.879240 
	C90.619064,13.502425 90.804016,13.283198 90.942177,13.024475 
	C90.942177,13.024475 90.946617,12.943414 91.172577,12.865929 
	C91.634506,12.650846 91.836220,12.474139 92.003677,12.258325 
	C92.003677,12.258325 92.468475,12.085387 93.039413,12.009216 
	C94.384964,11.293956 95.159584,10.654866 95.934212,10.015779 
	C95.934212,10.015780 95.939766,9.931188 96.170853,9.850942 
	C96.640732,9.627006 96.843956,9.443846 97.011620,9.221216 
	C97.011620,9.221216 97.399551,9.067024 97.889755,9.098917 
	C98.568016,9.166733 98.756081,9.202656 98.944145,9.238581 
z"/>
<path fill="#46709E" opacity="1.000000" stroke="none" 
	d="
M166.967102,101.035576 
	C163.575775,99.461166 163.448898,97.803825 165.755737,94.645370 
	C172.771637,85.039421 176.723526,74.461014 177.208176,62.192406 
	C177.859970,45.692684 173.110504,31.463898 163.242645,18.460968 
	C164.950912,18.823423 166.395554,19.471222 167.900146,20.469448 
	C171.007904,27.550644 174.055740,34.281414 177.233276,41.368149 
	C181.071426,53.511894 180.767426,65.266266 176.906769,77.334702 
	C175.404831,80.995056 174.093552,84.324776 172.719131,87.628235 
	C170.874451,92.062065 168.980988,96.475601 167.073105,100.932266 
	C167.037750,100.966682 166.967102,101.035576 166.967102,101.035576 
z"/>
<path fill="#DD443E" opacity="1.000000" stroke="none" 
	d="
M135.055374,104.008842 
	C127.304466,105.250031 121.997528,99.655663 124.841644,91.954948 
	C126.780762,86.704582 130.449112,82.092873 133.660736,77.504196 
	C133.991364,82.769600 133.879120,87.731049 134.060699,92.681709 
	C134.199463,96.464485 134.710144,100.233635 135.055374,104.008842 
z"/>
<path fill="#ED4E38" opacity="1.000000" stroke="none" 
	d="
M135.391724,103.985519 
	C134.710144,100.233635 134.199463,96.464485 134.060699,92.681709 
	C133.879120,87.731049 133.991364,82.769600 133.966492,77.355042 
	C135.580276,75.133728 137.204773,73.370171 138.991913,71.299469 
	C139.564011,70.988953 139.973511,70.985603 140.688126,71.389359 
	C140.998016,81.198685 141.002777,90.600899 141.007523,100.003113 
	C140.750732,100.755440 140.493958,101.507767 140.088242,102.522629 
	C139.939301,102.785179 139.495712,102.946815 138.998047,103.008278 
	C138.327194,103.107796 138.153976,103.145851 137.803757,103.236237 
	C137.400406,103.398491 137.210739,103.553383 137.057755,103.753227 
	C136.614532,103.822884 136.171295,103.892548 135.391724,103.985519 
z"/>
<path fill="#0FA7E1" opacity="1.000000" stroke="none" 
	d="
M111.050842,70.807320 
	C111.050842,70.807320 111.067093,70.505104 111.307449,70.112762 
	C111.693733,69.133789 111.839668,68.547157 111.985611,67.960518 
	C111.985603,67.960518 112.004410,68.005783 112.295013,67.920486 
	C113.669456,67.122917 114.753304,66.410637 115.955124,66.132996 
	C116.381645,71.622978 116.519623,76.697021 117.071091,81.725716 
	C117.344536,84.219246 118.378311,86.629402 119.071884,89.444801 
	C119.047729,90.546776 119.019791,91.281227 118.728195,92.021118 
	C117.592651,92.761002 116.720779,93.495445 115.486229,94.185776 
	C114.396553,94.105576 113.669540,94.069496 112.942535,94.033417 
	C112.942535,94.033424 112.993950,94.003754 112.891830,93.798866 
	C112.579918,93.324684 112.370125,93.055397 112.160332,92.786102 
	C109.145981,87.384842 108.568359,81.570847 109.800949,74.996155 
	C110.591461,73.233810 110.821152,72.020569 111.050842,70.807320 
z"/>
<path fill="#10A1DC" opacity="1.000000" stroke="none" 
	d="
M72.900658,100.995842 
	C58.573116,78.743095 58.063549,56.163166 71.947937,33.110023 
	C73.056465,32.970894 73.513794,32.979565 73.902481,33.338982 
	C73.360634,34.748707 72.973015,35.856430 72.401649,36.859489 
	C60.414459,57.903664 61.043907,78.609634 74.172867,99.189240 
	C74.570053,100.239548 74.813240,101.099823 75.031403,101.978104 
	C75.006371,101.996101 74.956375,102.032158 74.702675,101.897415 
	C73.932869,101.507065 73.416763,101.251457 72.900658,100.995842 
z"/>
<path fill="#128ACA" opacity="1.000000" stroke="none" 
	d="
M123.661346,49.030357 
	C128.580902,54.851013 126.847412,61.687420 126.633888,68.289726 
	C126.570862,70.238579 126.248039,72.179016 125.904396,74.863815 
	C125.173859,77.053703 124.583206,78.503090 123.742065,80.077820 
	C122.989288,80.450111 122.487015,80.697044 121.953308,80.556198 
	C121.829819,77.876450 122.040619,75.521629 121.580887,73.305946 
	C120.699303,69.057106 123.089119,63.803925 118.038803,60.475426 
	C119.748627,56.736740 121.359962,53.323654 122.971291,49.910568 
	C123.002472,49.571888 123.159103,49.307552 123.661346,49.030357 
z"/>
<path fill="#256CAD" opacity="1.000000" stroke="none" 
	d="
M167.840195,20.119022 
	C166.395554,19.471222 164.950912,18.823423 163.170319,18.110668 
	C162.275940,17.581255 161.717545,17.116796 160.965485,16.074076 
	C158.833618,13.367738 156.895401,11.239662 154.968781,8.723301 
	C154.994293,7.564954 155.008209,6.794893 155.341034,6.173277 
	C161.125183,8.889308 166.590439,11.456896 172.053223,14.263961 
	C172.050781,14.503439 172.031815,14.982043 171.928680,15.241858 
	C170.497086,17.040789 169.168640,18.579906 167.840195,20.119022 
z"/>
<path fill="#2F97BF" opacity="1.000000" stroke="none" 
	d="
M88.781746,78.069862 
	C92.093277,83.829201 95.556786,89.510345 98.593048,95.411316 
	C99.229721,96.648697 98.891525,99.209618 97.974205,100.276253 
	C94.742386,104.034164 90.975334,107.325134 87.581619,110.952568 
	C84.904419,113.814148 82.591805,113.741844 80.481445,110.331787 
	C82.469444,109.679970 84.248222,109.360802 86.309097,108.865524 
	C88.733017,106.635956 90.918884,104.626190 93.007942,102.520393 
	C98.097870,97.389671 98.025482,96.644333 92.187546,91.631714 
	C92.157837,91.439865 92.087303,91.058075 92.054543,90.693481 
	C91.027481,88.219475 90.033180,86.110069 89.019516,83.631317 
	C88.637497,81.822540 88.274841,80.383110 88.130325,78.725975 
	C88.492897,78.362129 88.637321,78.215996 88.781746,78.069862 
z"/>
<path fill="#496694" opacity="1.000000" stroke="none" 
	d="
M142.991501,44.995396 
	C143.011002,38.372276 143.366547,31.651541 137.871277,25.882618 
	C136.171707,28.950850 134.859100,31.320480 133.220825,33.812538 
	C133.414337,30.055956 133.933517,26.176949 134.452560,22.298883 
	C142.080750,23.179905 148.056351,35.562885 144.646942,44.600517 
	C143.832581,44.998466 143.412048,44.996933 142.991501,44.995396 
z"/>
<path fill="#3A517D" opacity="1.000000" stroke="none" 
	d="
M199.019745,55.905655 
	C199.012054,55.186195 199.004364,54.466740 198.858521,53.179306 
	C198.517014,52.347858 198.281006,52.117912 198.012314,51.921497 
	C197.689316,49.203438 197.366333,46.485374 197.044708,43.355255 
	C198.679901,48.527370 201.116760,54.019539 201.769379,59.716118 
	C202.899826,69.583679 201.818893,79.411667 197.296997,88.857872 
	C197.334457,86.341988 197.672272,83.613174 198.190613,80.315430 
	C198.600311,79.525162 198.799149,79.279282 198.967636,79.008858 
	C198.974670,78.565468 198.981705,78.122086 199.005920,77.094070 
	C199.024323,76.341286 199.025543,76.173134 199.026764,76.004982 
	C199.026764,76.004982 198.999496,75.995926 199.207535,75.716896 
	C199.612686,74.285507 199.809784,73.133156 200.006897,71.980797 
	C200.011597,68.303688 200.016296,64.626579 200.012207,60.127132 
	C199.675522,58.171745 199.347626,57.038700 199.019745,55.905655 
z"/>
<path fill="#4381B0" opacity="1.000000" stroke="none" 
	d="
M154.957169,9.111588 
	C156.895401,11.239662 158.833618,13.367738 160.863083,15.817359 
	C156.954010,13.775627 153.012146,11.305717 148.939621,9.074241 
	C142.933624,5.783355 136.301559,5.788507 129.333984,5.808357 
	C132.346359,5.237167 135.726196,4.624165 139.896942,4.074324 
	C141.801331,4.431860 142.914780,4.726236 144.028229,5.020612 
	C144.440796,5.016516 144.853378,5.012419 145.811310,5.134438 
	C149.223511,6.544231 152.090347,7.827910 154.957169,9.111588 
z"/>
<path fill="#3A95BE" opacity="1.000000" stroke="none" 
	d="
M121.984741,80.943985 
	C122.487015,80.697044 122.989288,80.450111 124.007904,80.098816 
	C124.701714,80.004601 124.879204,80.014732 125.056694,80.024872 
	C121.324593,86.469490 120.233521,93.536522 121.567635,101.175102 
	C120.775146,101.391693 119.982651,101.608284 119.190163,101.824875 
	C117.190811,99.436523 115.191460,97.048172 113.067322,94.346619 
	C113.669540,94.069496 114.396553,94.105576 115.609344,94.445358 
	C116.730370,95.152748 117.365616,95.556427 118.000854,95.960114 
	C118.331192,94.645302 118.661522,93.330490 118.991859,92.015678 
	C119.019791,91.281227 119.047729,90.546776 119.263145,89.125214 
	C120.295326,85.940063 121.140030,83.442024 121.984741,80.943985 
z"/>
<path fill="#3A95BE" opacity="1.000000" stroke="none" 
	d="
M95.335373,25.914341 
	C96.869789,22.870615 98.720840,19.697412 100.817551,16.294338 
	C104.974617,13.318612 108.774666,10.388465 112.855408,7.922901 
	C114.364357,7.011205 116.533546,7.192298 118.745560,6.944492 
	C109.337410,10.849140 101.870300,17.537355 95.335373,25.914341 
z"/>
<path fill="#3C6396" opacity="1.000000" stroke="none" 
	d="
M172.031815,14.982041 
	C172.031815,14.982043 172.050781,14.503439 172.481506,14.200864 
	C173.196915,13.848677 173.481613,13.799065 173.766296,13.749453 
	C181.696426,18.089672 187.159973,24.839876 191.960861,32.648247 
	C190.857071,32.470230 189.686401,31.946856 188.152649,30.893154 
	C186.201874,28.239956 184.614166,26.117085 182.828217,23.721443 
	C179.097244,20.626463 175.564529,17.804251 172.031815,14.982041 
z"/>
<path fill="#DE7244" opacity="1.000000" stroke="none" 
	d="
M151.896729,94.724060 
	C151.995071,89.973526 152.270844,84.888748 152.741394,79.508698 
	C156.344879,78.952774 156.384399,81.473343 155.860550,83.478203 
	C154.890259,87.191658 153.367050,90.760658 151.896729,94.724060 
z"/>
<path fill="#556890" opacity="1.000000" stroke="none" 
	d="
M142.834167,45.340416 
	C143.412048,44.996933 143.832581,44.998466 144.568451,45.002323 
	C144.735519,53.620094 139.889603,60.071930 134.528992,66.766800 
	C133.887909,67.008766 133.702911,66.980690 133.517914,66.952606 
	C133.928040,65.856628 134.338165,64.760658 134.899933,63.347771 
	C137.593323,57.249050 140.135071,51.467243 142.834167,45.340416 
z"/>
<path fill="#4075A6" opacity="1.000000" stroke="none" 
	d="
M173.589111,13.428918 
	C173.481613,13.799065 173.196915,13.848677 172.483948,13.961386 
	C166.590439,11.456896 161.125183,8.889308 155.026276,6.025369 
	C152.866287,4.900864 151.339951,4.072711 149.813614,3.244559 
	C149.813614,3.244560 149.910767,3.117813 149.959381,3.054480 
	C158.857651,3.938482 166.239746,8.280603 173.589111,13.428918 
z"/>
<path fill="#3A9BC5" opacity="1.000000" stroke="none" 
	d="
M122.653770,50.046715 
	C121.359962,53.323654 119.748627,56.736740 117.810822,60.741791 
	C116.935280,62.788624 116.386215,64.243492 115.837151,65.698364 
	C114.753304,66.410637 113.669456,67.122917 112.271332,67.914154 
	C115.416794,62.056358 118.876518,56.119614 122.653770,50.046715 
z"/>
<path fill="#10A1DC" opacity="1.000000" stroke="none" 
	d="
M86.027008,109.041634 
	C84.248222,109.360802 82.469444,109.679970 80.351730,109.999077 
	C80.012802,109.999016 79.993683,110.003113 79.881622,109.777664 
	C79.566528,109.283455 79.304596,109.097748 78.983772,108.995087 
	C78.983772,108.995087 79.008102,108.990097 78.894997,108.784470 
	C78.585449,108.307289 78.334229,108.103165 78.028221,107.966476 
	C78.028221,107.966476 78.001976,107.995773 77.943542,107.799622 
	C77.745865,107.370102 77.559464,107.183968 77.325905,107.045067 
	C77.325905,107.045067 77.104568,106.618523 76.928581,106.147224 
	C76.479897,105.450752 76.207199,105.225578 75.934494,105.000412 
	C75.934494,105.000412 76.001511,104.998306 75.876640,104.811165 
	C75.491768,104.416206 75.231773,104.208389 74.971771,104.000580 
	C74.971771,104.000580 75.005585,103.994591 75.015556,103.677139 
	C75.002472,102.917183 74.979424,102.474670 74.956375,102.032158 
	C74.956375,102.032158 75.006371,101.996101 75.380943,102.035614 
	C78.506958,103.392227 81.258408,104.709343 84.166527,106.282875 
	C84.891136,107.373413 85.459076,108.207520 86.027008,109.041634 
z"/>
<path fill="#4075A6" opacity="1.000000" stroke="none" 
	d="
M133.237762,67.064011 
	C133.702911,66.980690 133.887909,67.008766 134.350281,67.079811 
	C131.633148,71.306625 128.638641,75.490479 125.350418,79.849609 
	C124.879204,80.014732 124.701714,80.004601 124.258392,79.973465 
	C124.583206,78.503090 125.173859,77.053703 125.919418,75.300949 
	C128.368759,72.390190 130.663177,69.782806 133.237762,67.064011 
z"/>
<path fill="#3A95BE" opacity="1.000000" stroke="none" 
	d="
M84.861320,51.006725 
	C85.108864,50.759521 85.356407,50.512318 85.832520,50.135071 
	C86.684090,58.083210 87.307098,66.161392 87.559517,74.633324 
	C86.810669,75.008797 86.432411,74.990517 86.037033,74.600372 
	C85.979347,73.483521 85.938774,72.738533 85.919640,71.624725 
	C85.587959,69.846992 85.234848,68.438065 84.877167,66.592964 
	C84.825676,64.412590 84.778755,62.668392 84.785492,60.514397 
	C84.820892,58.450394 84.802643,56.796188 84.807373,54.728699 
	C84.840675,53.212521 84.850998,52.109623 84.861320,51.006725 
z"/>
<path fill="#10A1DC" opacity="1.000000" stroke="none" 
	d="
M72.974815,30.946365 
	C73.797493,29.672302 74.620171,28.398239 76.033379,26.925558 
	C77.160362,26.182745 77.696800,25.638552 78.389969,25.429470 
	C78.693207,27.838985 78.839722,29.913387 78.576660,31.986443 
	C76.807495,32.010525 75.447914,32.035961 73.918839,31.859859 
	C73.491180,31.421005 73.232994,31.183685 72.974815,30.946365 
z"/>
<path fill="#3C6396" opacity="1.000000" stroke="none" 
	d="
M185.073074,108.065292 
	C182.800980,110.021736 182.442688,116.195396 177.254120,111.132324 
	C177.525604,110.116829 177.755142,109.601654 178.239471,108.920898 
	C180.601120,108.443497 182.707962,108.131676 184.879349,107.881241 
	C184.943893,107.942619 185.073074,108.065292 185.073074,108.065292 
z"/>
<path fill="#3A95BE" opacity="1.000000" stroke="none" 
	d="
M86.375847,49.841278 
	C87.180222,45.493397 88.326050,40.938148 89.770111,36.185249 
	C88.951332,40.536366 87.834312,45.085136 86.375847,49.841278 
z"/>
<path fill="#3A95BE" opacity="1.000000" stroke="none" 
	d="
M91.232285,34.036945 
	C89.975540,30.650787 91.307800,28.029284 94.711014,26.079121 
	C93.878204,28.617632 92.708862,31.223623 91.232285,34.036945 
z"/>
<path fill="#46709E" opacity="1.000000" stroke="none" 
	d="
M172.920670,107.088837 
	C171.019394,105.274231 169.118103,103.459625 167.091965,101.340302 
	C166.967102,101.035576 167.037750,100.966682 167.423248,100.985596 
	C169.596786,102.944984 171.384827,104.885460 173.109772,106.891617 
	C173.046677,106.957298 172.920670,107.088837 172.920670,107.088837 
z"/>
<path fill="#3C6396" opacity="1.000000" stroke="none" 
	d="
M196.974609,42.637226 
	C195.691345,40.567978 194.376556,38.130852 193.033157,35.317097 
	C194.317398,37.383430 195.630234,39.826389 196.974609,42.637226 
z"/>
<path fill="#3C6396" opacity="1.000000" stroke="none" 
	d="
M189.009247,103.008186 
	C187.893173,104.593315 186.777115,106.178436 185.367065,107.914429 
	C185.073074,108.065292 184.943893,107.942619 184.924942,107.531296 
	C184.944427,106.410187 184.982880,105.700386 185.218658,104.732170 
	C186.559128,103.930992 187.702240,103.388237 188.886322,102.886169 
	C188.927277,102.926865 189.009247,103.008186 189.009247,103.008186 
z"/>
<path fill="#10A1DC" opacity="1.000000" stroke="none" 
	d="
M83.713821,18.336964 
	C84.066116,19.077906 84.116249,19.834984 83.959015,21.104256 
	C82.858376,22.080870 81.965111,22.545292 81.057144,22.688431 
	C81.008194,21.940109 80.973930,21.513073 80.939667,21.086037 
	C80.939667,21.086037 80.954353,20.883909 81.199219,20.790445 
	C81.625938,20.556231 81.765862,20.381821 81.863846,20.173752 
	C82.379784,19.566868 82.895721,18.959984 83.713821,18.336964 
z"/>
<path fill="#46709E" opacity="1.000000" stroke="none" 
	d="
M177.984680,109.086472 
	C177.755142,109.601654 177.525604,110.116829 177.106537,110.844025 
	C175.679550,109.922104 174.442093,108.788162 173.062653,107.371521 
	C172.920670,107.088837 173.046677,106.957298 173.436600,106.948822 
	C175.212570,107.655724 176.598618,108.371101 177.984680,109.086472 
z"/>
<path fill="#3A517D" opacity="1.000000" stroke="none" 
	d="
M194.335526,94.925400 
	C194.757782,93.468292 195.480240,91.848495 196.506500,90.079849 
	C196.085449,91.541565 195.360596,93.152138 194.335526,94.925400 
z"/>
<path fill="#139BD6" opacity="1.000000" stroke="none" 
	d="
M86.054153,74.972237 
	C86.432411,74.990517 86.810669,75.008797 87.472626,75.041367 
	C87.756332,75.055664 87.891670,75.495758 88.084122,76.173996 
	C88.397026,77.145035 88.517479,77.437820 88.637924,77.730614 
	C88.637924,77.730614 88.884621,77.919678 88.833183,77.994766 
	C88.637321,78.215996 88.492897,78.362129 87.924454,78.532082 
	C87.018349,77.361343 86.536247,76.166794 86.054153,74.972237 
z"/>
<path fill="#3C6396" opacity="1.000000" stroke="none" 
	d="
M189.957764,99.965721 
	C190.469437,99.724724 190.981094,99.483727 191.746033,99.116058 
	C191.196625,100.230095 190.393936,101.470802 189.300247,102.859848 
	C189.009247,103.008186 188.927277,102.926865 188.945740,102.580132 
	C189.295380,101.477501 189.626572,100.721611 189.957764,99.965721 
z"/>
<path fill="#2F89BD" opacity="1.000000" stroke="none" 
	d="
M108.777328,4.167345 
	C107.654129,4.824025 106.165215,5.423362 104.296127,6.013834 
	C105.414497,5.373314 106.913063,4.741658 108.777328,4.167345 
z"/>
<path fill="#1D91CC" opacity="1.000000" stroke="none" 
	d="
M95.613968,10.030273 
	C95.159584,10.654866 94.384964,11.293956 93.280334,11.950576 
	C93.731461,11.326994 94.512589,10.685882 95.613968,10.030273 
z"/>
<path fill="#139BD6" opacity="1.000000" stroke="none" 
	d="
M80.646103,21.168474 
	C80.973930,21.513073 81.008194,21.940109 81.028374,22.705378 
	C81.014297,23.043610 80.954697,23.071135 80.786896,23.202152 
	C80.405029,23.520342 80.208389,23.724316 79.749969,24.004339 
	C79.106888,24.166618 78.742989,24.269650 78.273491,24.277981 
	C78.167885,24.183281 77.953049,23.997990 77.953049,23.997990 
	C78.752884,23.082298 79.552711,22.166605 80.646103,21.168474 
z"/>
<path fill="#2F97BF" opacity="1.000000" stroke="none" 
	d="
M74.702675,101.897415 
	C74.979424,102.474670 75.002472,102.917183 75.006866,103.691940 
	C74.318565,103.236328 73.648926,102.448486 72.939972,101.328239 
	C73.416763,101.251457 73.932869,101.507065 74.702675,101.897415 
z"/>
<path fill="#2F89BD" opacity="1.000000" stroke="none" 
	d="
M99.221848,9.102621 
	C98.756081,9.202656 98.568016,9.166733 98.097168,9.075554 
	C98.698303,8.406329 99.582214,7.792359 100.802551,7.198988 
	C100.592506,7.801946 100.046028,8.384304 99.221848,9.102621 
z"/>
<path fill="#139BD6" opacity="1.000000" stroke="none" 
	d="
M78.233238,25.094357 
	C77.696800,25.638552 77.160362,26.182745 76.341537,26.786495 
	C76.503105,25.972982 76.947060,25.099916 77.672028,24.112421 
	C77.953049,23.997990 78.167885,24.183281 78.223389,24.454826 
	C78.278900,24.726372 78.233238,25.094355 78.233238,25.094357 
z"/>
<path fill="#3A9BC5" opacity="1.000000" stroke="none" 
	d="
M110.716927,71.009720 
	C110.821152,72.020569 110.591461,73.233810 110.123413,74.733505 
	C110.051033,73.750679 110.217026,72.481400 110.716927,71.009720 
z"/>
<path fill="#139BD6" opacity="1.000000" stroke="none" 
	d="
M72.698517,31.077730 
	C73.232994,31.183685 73.491180,31.421005 73.887772,32.091072 
	C74.026192,32.523823 73.971130,32.988239 73.971130,32.988239 
	C73.513794,32.979565 73.056465,32.970894 72.256683,32.949982 
	C72.083572,32.361530 72.252899,31.785313 72.698517,31.077730 
z"/>
<path fill="#3A9BC5" opacity="1.000000" stroke="none" 
	d="
M111.674728,68.101654 
	C111.839668,68.547157 111.693733,69.133789 111.364464,69.972595 
	C111.242043,69.564102 111.302948,68.903450 111.674728,68.101654 
z"/>
<path fill="#2F97BF" opacity="1.000000" stroke="none" 
	d="
M76.019928,105.265129 
	C76.207199,105.225578 76.479897,105.450752 76.880547,105.911797 
	C76.707451,105.941727 76.406410,105.735786 76.019928,105.265129 
z"/>
<path fill="#2F97BF" opacity="1.000000" stroke="none" 
	d="
M75.038757,104.260712 
	C75.231773,104.208389 75.491768,104.416206 75.874016,104.844589 
	C75.699425,104.883713 75.402588,104.702278 75.038757,104.260712 
z"/>
<path fill="#2F97BF" opacity="1.000000" stroke="none" 
	d="
M77.323280,107.265808 
	C77.559464,107.183968 77.745865,107.370102 77.959557,107.789276 
	C77.723679,107.918091 77.485901,107.755249 77.323280,107.265808 
z"/>
<path fill="#E6653D" opacity="1.000000" stroke="none" 
	d="
M137.980759,103.183914 
	C138.153976,103.145851 138.327194,103.107796 138.764954,103.045563 
	C138.820831,103.286018 138.612167,103.550644 138.174606,103.641556 
	C137.945709,103.467834 137.980759,103.183914 137.980759,103.183914 
z"/>
<path fill="#DD443E" opacity="1.000000" stroke="none" 
	d="
M137.803757,103.236237 
	C137.980759,103.183914 137.945709,103.467834 137.913177,103.607468 
	C137.880630,103.747108 137.469238,103.875259 137.263489,103.814240 
	C137.210739,103.553383 137.400406,103.398491 137.803757,103.236237 
z"/>
<path fill="#2F89BD" opacity="1.000000" stroke="none" 
	d="
M102.813362,6.186316 
	C102.874275,6.462401 102.633507,6.656773 102.142921,6.895144 
	C102.133591,6.703452 102.339783,6.425271 102.813362,6.186316 
z"/>
<path fill="#2F89BD" opacity="1.000000" stroke="none" 
	d="
M110.795998,3.212222 
	C110.854652,3.481487 110.618439,3.672668 110.136780,3.907977 
	C110.128227,3.720993 110.331490,3.448338 110.795998,3.212222 
z"/>
<path fill="#2F97BF" opacity="1.000000" stroke="none" 
	d="
M78.069908,108.231964 
	C78.334229,108.103165 78.585449,108.307289 78.893677,108.796799 
	C78.707504,108.842331 78.409554,108.669891 78.069908,108.231964 
z"/>
<path fill="#2F97BF" opacity="1.000000" stroke="none" 
	d="
M79.058044,109.242294 
	C79.304596,109.097748 79.566528,109.283455 79.882996,109.767845 
	C79.708389,109.818817 79.420349,109.654160 79.058044,109.242294 
z"/>
<path fill="#3A517D" opacity="1.000000" stroke="none" 
	d="
M193.254349,96.981453 
	C193.143005,96.810562 193.295288,96.553291 193.647461,96.158745 
	C193.886490,96.359093 193.776688,96.650299 193.254349,96.981453 
z"/>
<path fill="#3A95BE" opacity="1.000000" stroke="none" 
	d="
M112.116806,93.085953 
	C112.370125,93.055397 112.579918,93.324684 112.889862,93.828476 
	C112.684441,93.837257 112.378860,93.611526 112.116806,93.085953 
z"/>
<path fill="#1D91CC" opacity="1.000000" stroke="none" 
	d="
M96.769936,9.187685 
	C96.843956,9.443846 96.640732,9.627006 96.213196,9.852875 
	C96.026413,9.567683 96.194344,9.307384 96.769936,9.187685 
z"/>
<path fill="#1D91CC" opacity="1.000000" stroke="none" 
	d="
M91.766953,12.220181 
	C91.836220,12.474139 91.634506,12.650846 91.213150,12.867429 
	C91.036743,12.587443 91.204239,12.332651 91.766953,12.220181 
z"/>
<path fill="#1D91CC" opacity="1.000000" stroke="none" 
	d="
M90.712128,13.074053 
	C90.804016,13.283198 90.619064,13.502425 90.202713,13.790175 
	C90.030357,13.554747 90.185020,13.296557 90.712128,13.074053 
z"/>
<path fill="#1D91CC" opacity="1.000000" stroke="none" 
	d="
M88.757553,14.222321 
	C88.840515,14.473983 88.668625,14.636675 88.286484,14.808397 
	C88.089111,14.527336 88.231262,14.299310 88.757553,14.222321 
z"/>
<path fill="#1D91CC" opacity="1.000000" stroke="none" 
	d="
M86.644691,16.127087 
	C86.743919,16.337332 86.573776,16.544621 86.170425,16.802017 
	C86.020432,16.583645 86.166473,16.340979 86.644691,16.127087 
z"/>
<path fill="#139BD6" opacity="1.000000" stroke="none" 
	d="
M81.669754,20.190107 
	C81.765862,20.381821 81.625938,20.556231 81.300293,20.783207 
	C81.108963,20.574169 81.215355,20.353180 81.669754,20.190107 
z"/>
<path fill="#2F97BF" opacity="1.000000" stroke="none" 
	d="
M88.761269,77.465668 
	C88.517479,77.437820 88.397026,77.145035 88.137276,76.397995 
	C88.293518,76.362747 88.589066,76.781738 88.761269,77.465668 
z"/>
<path fill="#3C6396" opacity="1.000000" stroke="none" 
	d="
M192.756073,33.738083 
	C192.568039,33.770725 192.389954,33.553322 192.114197,33.144634 
	C192.324890,33.039051 192.574722,33.217278 192.756073,33.738083 
z"/>
<path fill="#496694" opacity="1.000000" stroke="none" 
	d="
M132.725357,34.014004 
	C132.942383,34.113632 132.944977,34.314796 132.939087,34.817131 
	C132.790695,34.784042 132.650818,34.449791 132.725357,34.014004 
z"/>
<path fill="#3A95BE" opacity="1.000000" stroke="none" 
	d="
M90.265396,35.958771 
	C90.155701,35.770706 90.313393,35.473866 90.640938,34.985241 
	C90.718124,35.145638 90.625458,35.497818 90.265396,35.958771 
z"/>
<path fill="#1F72B5" opacity="1.000000" stroke="none" 
	d="
M149.578857,3.235864 
	C151.339951,4.072711 152.866287,4.900864 154.707367,5.876925 
	C155.008209,6.794893 154.994293,7.564954 154.968781,8.723301 
	C152.090347,7.827910 149.223511,6.544231 146.120667,5.126955 
	C146.727051,4.513094 147.569427,4.032832 148.643066,3.394143 
	C148.874329,3.235717 149.344086,3.227169 149.578857,3.235864 
z"/>
<path fill="#1F72B5" opacity="1.000000" stroke="none" 
	d="
M143.904892,4.726123 
	C142.914780,4.726236 141.801331,4.431860 140.349442,4.072900 
	C141.267853,4.149422 142.524704,4.290528 143.904892,4.726123 
z"/>
<path fill="#295DA2" opacity="1.000000" stroke="none" 
	d="
M189.796356,99.678932 
	C189.626572,100.721611 189.295380,101.477501 188.904785,102.539444 
	C187.702240,103.388237 186.559128,103.930992 184.847809,104.702263 
	C181.352325,104.444130 180.112534,102.877625 180.302124,99.770874 
	C180.680756,93.565811 181.001358,87.333473 180.775772,81.133148 
	C180.723984,79.709824 178.365967,78.370407 177.069305,76.992371 
	C180.767426,65.266266 181.071426,53.511894 177.620728,41.359783 
	C182.695938,40.968719 182.582428,38.093208 180.918564,35.055161 
	C178.490250,30.621294 180.005646,27.235836 183.026474,23.994213 
	C184.614166,26.117085 186.201874,28.239956 187.907761,30.670069 
	C188.817337,38.831509 189.659821,46.681118 190.366043,54.542965 
	C190.554901,56.645214 190.367676,58.786423 190.284668,60.907066 
	C189.806030,73.134979 189.294479,85.361626 188.852524,97.590820 
	C188.831192,98.181068 189.361496,98.791252 189.796356,99.678932 
z"/>
<path fill="#3B5A9D" opacity="1.000000" stroke="none" 
	d="
M199.018082,56.271896 
	C199.347626,57.038700 199.675522,58.171745 200.005157,59.668915 
	C199.676727,58.901402 199.346588,57.769768 199.018082,56.271896 
z"/>
<path fill="#3B5A9D" opacity="1.000000" stroke="none" 
	d="
M199.811707,72.274582 
	C199.809784,73.133156 199.612686,74.285507 199.215912,75.728088 
	C199.216339,74.868324 199.416428,73.718346 199.811707,72.274582 
z"/>
<path fill="#3B5A9D" opacity="1.000000" stroke="none" 
	d="
M198.787781,79.163940 
	C198.799149,79.279282 198.600311,79.525162 198.190216,79.902023 
	C198.179703,79.787727 198.379242,79.541565 198.787781,79.163940 
z"/>
<path fill="#3B5A9D" opacity="1.000000" stroke="none" 
	d="
M198.940125,76.118286 
	C199.025543,76.173134 199.024323,76.341286 199.010345,76.761505 
	C198.788330,76.776588 198.740311,76.515930 198.940125,76.118286 
z"/>
<path fill="#3B5A9D" opacity="1.000000" stroke="none" 
	d="
M198.150696,52.126671 
	C198.281006,52.117912 198.517014,52.347858 198.854355,52.819576 
	C198.726028,52.825218 198.492935,52.593224 198.150696,52.126671 
z"/>
<path fill="#F05936" opacity="1.000000" stroke="none" 
	d="
M141.373199,99.923965 
	C141.002777,90.600899 140.998016,81.198685 140.995209,71.385185 
	C141.766937,69.638741 142.536697,68.303574 143.306458,66.968407 
	C143.847595,67.062691 144.388718,67.156975 144.929840,67.251259 
	C145.196320,73.163452 145.508041,79.074089 145.710129,84.988487 
	C145.810486,87.925262 145.365463,90.919388 145.787537,93.796555 
	C146.302902,97.309807 145.166214,99.215813 141.373199,99.923965 
z"/>
<path fill="#07A1E3" opacity="1.000000" stroke="none" 
	d="
M78.389969,25.429468 
	C78.233238,25.094355 78.278900,24.726372 78.328995,24.549526 
	C78.742989,24.269650 79.106888,24.166618 79.924576,23.881977 
	C80.599197,23.516930 80.791306,23.307186 80.954697,23.071135 
	C80.954697,23.071135 81.014297,23.043610 81.043068,23.026663 
	C81.965111,22.545292 82.858376,22.080870 83.879845,21.327152 
	C88.960014,20.750536 89.525139,23.845072 88.725914,27.543755 
	C87.561478,32.932583 86.135284,38.266552 84.735527,43.601574 
	C84.403534,44.866928 83.733261,46.043530 82.849228,47.729454 
	C82.327354,49.142464 82.174858,50.086967 81.943924,51.392250 
	C81.025459,54.622429 80.397629,57.430817 84.018875,59.287037 
	C84.296234,60.001122 84.514030,60.462658 84.731827,60.924194 
	C84.778755,62.668392 84.825676,64.412590 84.726669,66.851974 
	C85.019882,69.029289 85.459038,70.511414 85.898193,71.993546 
	C85.938774,72.738533 85.979347,73.483521 86.037033,74.600372 
	C86.536247,76.166794 87.018349,77.361343 87.706314,78.749786 
	C88.274841,80.383110 88.637497,81.822540 88.692291,83.794777 
	C87.926102,86.220749 87.467781,88.113914 86.977501,90.384628 
	C86.958626,93.838387 82.951553,96.937469 86.999222,100.245560 
	C87.001274,100.670265 87.002159,100.840157 86.823112,101.226547 
	C86.432747,101.960320 86.222313,102.477585 85.757416,102.998573 
	C85.333298,103.004677 85.163651,103.007065 84.763107,103.080078 
	C84.357788,103.763756 84.183372,104.376801 84.009033,105.249001 
	C84.009354,105.680923 84.009598,105.853691 84.009850,106.026451 
	C81.258408,104.709343 78.506958,103.392227 75.405975,102.017609 
	C74.813240,101.099823 74.570053,100.239548 74.555923,99.154533 
	C78.590118,98.596375 79.141068,96.007492 78.997513,92.899551 
	C78.655228,85.489082 78.261681,78.079773 78.041626,70.665466 
	C77.954346,67.724541 78.488869,64.762062 78.359825,61.826107 
	C78.085228,55.578629 77.552048,49.342697 77.159019,43.099880 
	C77.129265,42.627384 77.402580,42.142998 77.479866,41.655399 
	C77.990410,38.434196 78.485855,35.210606 78.986221,31.987791 
	C78.839722,29.913387 78.693207,27.838985 78.389969,25.429468 
z"/>
<path fill="#10A1DC" opacity="1.000000" stroke="none" 
	d="
M83.959320,59.034485 
	C80.397629,57.430817 81.025459,54.622429 82.273575,51.385551 
	C83.121803,51.010983 83.561920,51.003891 84.002045,50.996796 
	C84.002045,50.996796 84.432899,51.001705 84.647110,51.004215 
	C84.850998,52.109623 84.840675,53.212521 84.653404,55.015213 
	C84.304077,56.821503 84.131699,57.927994 83.959320,59.034485 
z"/>
<path fill="#04A8E7" opacity="1.000000" stroke="none" 
	d="
M83.978249,50.673435 
	C83.561920,51.003891 83.121803,51.010983 82.352020,51.024776 
	C82.174858,50.086967 82.327354,49.142464 82.752426,48.091438 
	C83.334816,48.773304 83.644630,49.561687 83.978249,50.673435 
z"/>
<path fill="#2663A8" opacity="1.000000" stroke="none" 
	d="
M176.906769,77.334702 
	C178.365967,78.370407 180.723984,79.709824 180.775772,81.133148 
	C181.001358,87.333473 180.680756,93.565811 180.302124,99.770874 
	C180.112534,102.877625 181.352325,104.444130 184.650452,104.960686 
	C184.982880,105.700386 184.944427,106.410187 184.860397,107.469917 
	C182.707962,108.131676 180.601120,108.443497 178.239471,108.920898 
	C176.598618,108.371101 175.212570,107.655724 173.499695,106.883148 
	C171.384827,104.885460 169.596786,102.944984 167.458603,100.951180 
	C168.980988,96.475601 170.874451,92.062065 172.719131,87.628235 
	C174.093552,84.324776 175.404831,80.995056 176.906769,77.334702 
z"/>
<path fill="#2663A8" opacity="1.000000" stroke="none" 
	d="
M182.828217,23.721443 
	C180.005646,27.235836 178.490250,30.621294 180.918564,35.055161 
	C182.582428,38.093208 182.695938,40.968719 177.491028,41.003815 
	C174.055740,34.281414 171.007904,27.550644 167.900146,20.469448 
	C169.168640,18.579906 170.497086,17.040789 171.928680,15.241856 
	C175.564529,17.804251 179.097244,20.626463 182.828217,23.721443 
z"/>
<path fill="#0B9ADA" opacity="1.000000" stroke="none" 
	d="
M115.955124,66.133003 
	C116.386215,64.243492 116.935280,62.788624 117.712326,61.067390 
	C123.089119,63.803925 120.699303,69.057106 121.580887,73.305946 
	C122.040619,75.521629 121.829819,77.876450 121.953308,80.556198 
	C121.140030,83.442024 120.295326,85.940063 119.259361,88.757690 
	C118.378311,86.629402 117.344536,84.219246 117.071091,81.725716 
	C116.519623,76.697021 116.381645,71.622978 115.955124,66.133003 
z"/>
<path fill="#0B9ADA" opacity="1.000000" stroke="none" 
	d="
M118.728195,92.021118 
	C118.661522,93.330490 118.331192,94.645302 118.000854,95.960114 
	C117.365616,95.556427 116.730370,95.152748 115.972015,94.489471 
	C116.720779,93.495445 117.592651,92.761002 118.728195,92.021118 
z"/>
<path fill="#04A8E7" opacity="1.000000" stroke="none" 
	d="
M78.576653,31.986443 
	C78.485855,35.210606 77.990410,38.434196 77.479866,41.655399 
	C77.402580,42.142998 77.129265,42.627384 77.159019,43.099880 
	C77.552048,49.342697 78.085228,55.578629 78.359825,61.826107 
	C78.488869,64.762062 77.954346,67.724541 78.041626,70.665466 
	C78.261681,78.079773 78.655228,85.489082 78.997513,92.899551 
	C79.141068,96.007492 78.590118,98.596375 74.401924,98.964508 
	C61.043907,78.609634 60.414459,57.903664 72.401649,36.859489 
	C72.973015,35.856430 73.360634,34.748707 73.902481,33.338982 
	C73.971130,32.988239 74.026192,32.523823 74.057259,32.292610 
	C75.447914,32.035961 76.807495,32.010525 78.576653,31.986443 
z"/>
<path fill="#0B9BDC" opacity="1.000000" stroke="none" 
	d="
M87.003052,101.010040 
	C87.002159,100.840157 87.001274,100.670265 87.074760,99.900726 
	C88.838509,96.808571 90.527885,94.316063 92.217262,91.823555 
	C98.025482,96.644333 98.097870,97.389671 93.007942,102.520393 
	C90.918884,104.626190 88.733017,106.635956 86.309097,108.865524 
	C85.459076,108.207520 84.891136,107.373413 84.166527,106.282875 
	C84.009598,105.853691 84.009354,105.680923 84.187119,105.032486 
	C84.574753,104.041039 84.784378,103.525253 84.994003,103.009460 
	C85.163651,103.007065 85.333298,103.004677 85.987305,102.926826 
	C86.648796,102.237587 86.825920,101.623817 87.003052,101.010040 
z"/>
<path fill="#10A1DC" opacity="1.000000" stroke="none" 
	d="
M92.187546,91.631714 
	C90.527885,94.316063 88.838509,96.808571 87.073593,99.645905 
	C82.951553,96.937469 86.958626,93.838387 87.350403,90.390907 
	C89.199272,90.365784 90.643288,90.711929 92.087303,91.058075 
	C92.087303,91.058075 92.157837,91.439865 92.187546,91.631714 
z"/>
<path fill="#0B9BDC" opacity="1.000000" stroke="none" 
	d="
M92.054543,90.693481 
	C90.643288,90.711929 89.199272,90.365784 87.382355,90.013359 
	C87.467781,88.113914 87.926102,86.220749 88.711655,84.164124 
	C90.033180,86.110069 91.027481,88.219475 92.054543,90.693481 
z"/>
<path fill="#139BD6" opacity="1.000000" stroke="none" 
	d="
M85.919632,71.624725 
	C85.459038,70.511414 85.019882,69.029289 84.731232,67.288147 
	C85.234848,68.438065 85.587959,69.846992 85.919632,71.624725 
z"/>
<path fill="#139BD6" opacity="1.000000" stroke="none" 
	d="
M84.018875,59.287037 
	C84.131699,57.927994 84.304077,56.821503 84.630432,55.428497 
	C84.802643,56.796188 84.820892,58.450394 84.785484,60.514397 
	C84.514030,60.462658 84.296234,60.001122 84.018875,59.287037 
z"/>
<path fill="#10A1DC" opacity="1.000000" stroke="none" 
	d="
M80.786896,23.202152 
	C80.791306,23.307186 80.599197,23.516930 80.203766,23.822727 
	C80.208389,23.724316 80.405029,23.520342 80.786896,23.202152 
z"/>
<path fill="#10A1DC" opacity="1.000000" stroke="none" 
	d="
M86.823120,101.226547 
	C86.825920,101.623817 86.648796,102.237587 86.241776,102.923103 
	C86.222313,102.477585 86.432747,101.960320 86.823120,101.226547 
z"/>
<path fill="#10A1DC" opacity="1.000000" stroke="none" 
	d="
M84.763107,103.080078 
	C84.784378,103.525253 84.574753,104.041039 84.187042,104.773338 
	C84.183372,104.376801 84.357788,103.763756 84.763107,103.080078 
z"/>
</svg>