<svg version="1.2" xmlns="http://www.w3.org/2000/svg" viewBox="0 0 1079 218" width="1079" height="218">
	<style>
		.s0 { fill: #231f20 } 
		.s1 { fill: #e91f3e } 
		.s2 { fill: #010101 } 
		.s3 { fill: #df2047 } 
	</style>
	<path fill-rule="evenodd" class="s0" d="m608.28 1.74h6.87v189.46h-6.87z"/>
	<path fill-rule="evenodd" class="s1" d="m347.57 136.62c-2.48 1.41-4.87 3.02-7.5 4.18-6.28 2.75-12.64 5.34-19.04 7.89-3.22 1.29-3.76 0.86-3.47-2.68 1.47-16.96 2.99-33.91 4.41-50.92 0.89-10.38 2.05-20.78 2.32-31.19 0.13-4.05-1.31-8.35-2.89-12.17-1.62-3.98-6.05-4.94-9.7-2.63-5.13 3.25-8.25 7.77-8.25 14.12 0 22.07-0.21 44.13 0 66.19 0.06 5.32-1.63 8.81-6.17 11.32-3.81 2.05-7.43 4.47-11.12 6.67-0.82 0.49-1.75 0.73-3.1 1.26-0.18-2.12-0.43-3.83-0.47-5.52-0.1-24.55-0.1-49.06-0.37-73.61-0.03-4.95-0.34-10.09-1.66-14.83-1.4-4.95-5.48-5.5-9.41-2.09-3.45 3.05-4.68 6.92-4.68 11.36-0.02 23.74-0.1 47.48-0.05 71.25 0 2.46-0.74 4.01-2.9 5.19-4.81 2.65-9.56 5.42-14.36 8.07-0.8 0.48-1.79 0.58-3.23 1.05v-4.22c-0.07-26.82-0.13-53.6-0.22-80.4-0.03-2.16-0.3-4.3-0.68-6.43-0.86-4.92-3.71-7.8-8.81-8.54-1.89-0.27-4.92-0.08-4.91-2.69 0.05-1.38 2.36-3.07 4-3.99 5.63-3.2 11.44-6.11 17.21-9.09 3.36-1.72 5.47-1.26 7.57 1.85 2.3 3.41 4.38 6.95 6.85 10.89 1.45-1.24 2.86-2.38 4.19-3.62 3.21-3.03 6.25-6.31 9.64-9.15 5.33-4.55 9.65-4.16 14.28 1.1 2.29 2.59 4.36 5.33 6.48 8.03 2.74 3.46 2.74 3.53 6.01 0.74 3.97-3.4 7.8-6.95 11.79-10.29 5.1-4.27 9.69-4.36 14.92-0.12 9.28 7.57 13.44 17.44 12.35 29.42-1.32 14.8-2.68 29.6-4.01 44.41-0.66 7.35-1.27 14.71-2.02 22.06-0.24 2.4 0.24 3.92 2.85 4.48 1.39 0.3 2.61 1.14 3.94 1.71 0.04 0.32 0.13 0.63 0.21 0.96z"/>
	<path fill-rule="evenodd" class="s1" d="m36.94 108.77v20.91c0 2.66 0.15 5.33-0.15 7.97-0.15 1.11-1.04 2.69-2.02 3.07-6.53 2.62-13.16 5.03-20.27 7.68-0.14-1.52-0.29-2.55-0.29-3.56-0.18-29.24-0.29-58.52-0.43-87.77-0.04-1.65-0.26-3.32-0.45-4.98-0.34-3.21-2.13-4.92-5.34-5.26-2.52-0.28-4.99-0.8-7.48-1.23q-0.28-0.44-0.55-0.86c1.8-1.63 3.41-3.55 5.42-4.88 4.4-2.91 9.03-5.56 13.56-8.34 6.19-3.79 10.81-2.67 14.61 3.61 1.28 2.11 2.39 4.29 3.8 6.8 2.83-1.91 5.43-3.71 8.06-5.53 2.62-1.77 5.16-3.58 7.83-5.27 4.79-3.07 7.88-2.71 12.27 0.97 4.71 4.04 7.68 9.21 10.1 14.74 4.16 9.51 6.28 19.43 5.35 29.85-0.37 4.15-2.03 7.6-5.35 10.13-3.48 2.56-7.07 5.01-10.56 7.57-5.17 3.79-5.22 4.63-2.74 10.52 4.83 11.24 12.09 20.92 19.08 30.79 3.5 4.9 3.59 5.02-1.43 8.62-2.47 1.78-5.14 3.44-7.95 4.49-3.9 1.43-7.68-0.16-10.23-2.94-4.3-4.67-8.48-9.6-11.81-14.96-4.01-6.39-7.16-13.34-10.71-20.05-0.42-0.82-0.95-1.61-1.45-2.4q-0.43 0.16-0.87 0.31zm-0.31-36.07c0.36 5.98 0.64 11.29 1.09 16.6 0.09 0.86 0.92 2.29 1.52 2.38 3.58 0.47 7.26 1.02 10.82 0.77 4.73-0.3 7.68-3.33 7.88-7.98 0.29-6.6 0.45-13.23 0-19.77-0.46-6.03-3.24-11.33-7.22-15.86-2.84-3.24-5.53-3.21-8.04 0.32-1.94 2.76-3.99 5.8-4.69 9-1.05 4.93-0.99 10.12-1.35 14.55z"/>
	<path fill-rule="evenodd" class="s1" d="m507.82 109.83c0.45-10.65 2.13-22.83 7.76-34.17 2.86-5.75 7.4-9.81 12.82-13.09 3.79-2.26 7.46-4.72 11.15-7.14 2.19-1.43 2.54-3.04 0.36-4.89-6.66-5.66-13.42-11.21-19.91-17.06-5.99-5.37-11.72-11.03-17.49-16.67-0.92-0.84-1.69-1.94-2.19-3.11-0.26-0.59 0-2 0.47-2.23q10.85-5.56 21.84-10.86c0.81-0.37 2.45-0.28 2.9 0.26 0.49 0.6 0.32 2.15-0.11 2.95-1.84 3.32-1.13 5.82 1.8 8.12 5.31 4.19 10.43 8.63 15.87 12.7 7.55 5.7 14.9 11.61 20.47 19.41 4.07 5.68 6.04 12.02 5.99 19.06-0.18 20.7-0.2 41.37-0.31 62.09-0.05 7.75-3.84 13.01-11.95 16.11-6.6 2.51-13.23 5.09-20.02 6.96-11.89 3.28-18.28 0.41-23.88-10.66-4.14-8.11-5.52-16.95-5.56-27.78zm39.63-12.36c0-9.96 0.06-19.89-0.04-29.85-0.02-2.8-1.24-3.84-3.7-2.52-2.48 1.27-5.19 3.36-6.25 5.77-1.95 4.29-2.9 9.08-3.99 13.72-2.85 12.17-3.95 24.49-2.85 36.93 0.39 4.44 0.84 9.03 4.11 12.67 1.85 2.07 4.01 3.21 6.78 2.47 2.84-0.8 4.93-2.61 5.51-5.58 0.47-2.3 0.71-4.68 0.71-7.03 0.09-8.86 0.04-17.71 0.04-26.58z"/>
	<path fill-rule="evenodd" class="s1" d="m201.18 113.56c1.04-4.28 2.14-8.51 3.1-12.82 2.86-12.96 5.66-25.9 8.48-38.88 1.62-7.38 3.3-14.75 4.91-22.1 1.03-4.79 8.33-9.73 13.23-8.68 0.56 0.1 1.27 1.59 1.12 2.28-0.98 4.82-2.11 9.58-3.36 14.34-3.15 12.39-6.32 24.74-9.6 37.07-3.24 12.24-6.62 24.45-9.84 36.67-2.74 10.44-5.17 21.01-8.08 31.4-2.4 8.74-4.46 17.75-8.12 26.01-6.78 15.39-24.28 16.68-33.98 9.51-6.65-4.89-9.72-11.98-10.35-20.01-0.11-1.52 1.24-3.63 2.56-4.64 4.95-3.71 10.66-5.76 16.74-6.97 2.38-0.49 3.1 0.99 3.8 2.73 1.06 2.83 2.12 5.7 3.37 8.45 1.14 2.47 2.67 4.67 5.88 4.67 3.21 0 6.12-1.52 7.06-4.45 1.8-5.45 2.92-11.11 4.09-16.77 0.14-0.71-1.05-1.69-1.59-2.57-1.5-2.28-3.44-4.36-4.35-6.83-6.83-18.6-13.5-37.27-20.17-55.95-3.7-10.34-7.41-20.72-10.93-31.12-0.67-2-1.8-2.64-3.59-2.85-2.52-0.27-5.11-0.37-7.61-0.88-1-0.2-2.44-1.26-2.54-2.07-0.14-1.17 0.39-3.18 1.3-3.63 8.59-4.53 17.32-8.84 26.03-13.13 1.46-0.72 2.53-0.29 3.15 1.45 3.71 10.55 7.55 21.08 11.25 31.63 5.29 15.06 10.51 30.17 15.74 45.25 0.39 1.07 0.95 2.05 1.43 3.08 0.29-0.07 0.56-0.12 0.87-0.19z"/>
	<path fill-rule="evenodd" class="s1" d="m435.41 150.03c-0.19-1.8-0.49-3.25-0.49-4.67-0.14-22.75-0.23-45.51-0.38-68.25q-0.04-8.72-0.31-17.43c-0.03-1.65-0.31-3.34-0.75-4.93-0.77-2.93-2.54-4.8-5.76-5.1q-4.09-0.4-8.15-1.14c-2.43-0.44-2.29-1.81-0.84-3.29 0.95-0.94 2.04-1.87 3.24-2.46 6.24-2.95 12.46-5.85 18.75-8.63 4.71-2.09 7.27-1.2 9.68 3.36 1.65 3.13 3.03 6.41 4.44 9.67 0.78 1.81 1.56 2.01 2.97 0.52 4.72-5 9.48-9.99 14.3-14.88 4.47-4.58 8.51-4.89 13.56-1.08 9.66 7.22 14.05 16.69 12.96 28.91-1.89 21.39-3.27 42.79-5.25 64.13-0.46 4.94 1.92 7.16 5.59 8.9-1.98 3.99-22.39 15.45-26.89 15.19-0.06-0.73-0.23-1.53-0.17-2.27q2.03-26.05 4-52.11c0.9-11.39 1.83-22.75 2.53-34.15 0.14-2.39-0.4-4.9-1.1-7.23-1.6-5.45-6.74-7.22-11.34-3.86-6.8 4.96-10.87 11.32-10.82 20.15 0.15 22.16 0 44.32-0.11 66.49 0 1.19-0.53 2.89-1.44 3.53-4.63 3.24-9.49 6.29-14.3 9.29-1.04 0.63-2.35 0.84-3.93 1.34z"/>
	<path fill-rule="evenodd" class="s1" d="m135.41 138.38c-1.76 2.15-3.43 3.91-4.83 5.93-3.3 4.71-7.89 5.72-13.22 5.21-13.72-1.29-23.34-8.71-29.94-20.31-4.4-7.8-6.02-16.15-3.43-25 1.52-5.22 5.12-8.92 9.45-11.67 7.21-4.59 14.7-8.72 22.1-12.96 5.5-3.19 5.66-3.15 4.48-9.2-0.98-5.02-2.26-9.98-3.7-14.85-0.24-0.81-1.93-1.61-2.94-1.63-6.51-0.26-12.99-0.23-19.5-0.4-2.72-0.06-5.41-0.33-8.93-0.6 2.24-3.24 3.9-5.88 5.77-8.35 3-3.99 6.08-7.97 9.34-11.77 0.83-0.96 2.47-1.67 3.76-1.68 8.85-0.15 17.71 0 26.57-0.07 1.98 0 3.14 0.54 3.56 2.61 2.07 9.52 4.24 18.98 6.38 28.48q3.81 16.82 7.57 33.63c1.98 8.92 4.1 17.84 5.85 26.78 1.13 5.67 3.62 10.61 7.17 15.03 1.46 1.85 1.51 2.92-0.66 4.1-4.12 2.24-8.26 4.53-12.28 6.97-2.26 1.38-3.75 0.89-5.26-1.1-2.31-3.03-4.77-5.94-7.33-9.12zm-12.29-50.22c-5.15 2.61-9.61 4.49-13.66 7.02-4.92 3.08-6.21 8.1-5.6 13.65 1.26 11.64 8.35 19.61 16.98 26.53 0.9 0.72 3.51 0.82 4.12 0.14 4.03-4.32 7.32-9.09 5.93-15.55-1.6-7.39-3.01-14.81-4.71-22.19-0.68-2.99-1.85-5.89-3.06-9.6z"/>
	<path fill-rule="evenodd" class="s1" d="m419.02 86.43c-0.09 14.82-0.94 26.74-4.4 38.37-1.48 4.98-4.46 9.16-8.82 11.78-7.57 4.5-15.32 8.82-23.34 12.38-6.48 2.86-14.45-0.28-18.61-6.45-5.37-7.96-8.26-16.72-9.15-26.37-1.03-11.45-0.98-22.83 0.21-34.21 1.4-12.52 3.97-24.78 12.86-34.45 6.24-6.8 13.96-11.91 22.67-14.96 6.25-2.23 11.7 0.37 16.28 4.9 5.71 5.59 8.96 12.57 9.88 20.3 1.28 10.44 1.79 20.96 2.4 28.71zm-20.37 4.68c0.27-0.04 0.49-0.08 0.73-0.09-1.02-9.39-1.78-18.79-3.16-28.08-0.63-4.3-2.2-8.58-3.96-12.59-0.89-2.03-3.1-3.53-4.71-5.25-1.85 1.93-4.39 3.59-5.44 5.88-4.17 9.06-5.14 18.85-5.81 28.7-1.03 15.58-0.46 31.06 3.5 46.23 1.12 4.24 2.14 8.63 6.45 11.12 1.49 0.87 2.67 0.92 3.46-0.69 1.93-4.02 4.4-7.95 5.56-12.19 2.84-10.81 3.56-21.9 3.37-33.05z"/>
	<g>
		<path fill-rule="evenodd" class="s2" d="m709.2 131.93v1.57h-11.04l-16.27-22.56h-14.41v22.56h-10.95v-64.77h27.03c14.22 0 22.73 9.53 22.73 21.09 0 8.98-5.42 16.47-13.75 19.43zm-25.73-29.88c7.12 0 12.27-5.1 12.27-12.13 0-7.03-5.06-11.85-12.27-11.85h-16.17v23.97c0 0 16.17 0 16.17 0.01z"/>
		<path fill-rule="evenodd" class="s2" d="m778.89 78.16h-28.91v17.13h27.31v9.51h-27.31v18.89h29.47v9.8h-40.42v-64.77h39.86v9.44z"/>
		<path fill-rule="evenodd" class="s2" d="m821.44 120.09l-6.36 13.41h-11.41v-1.4l30.31-63.83h5.04l30.13 63.83v1.4h-11.33l-6.45-13.41zm3.56-9.08h22.92l-11.4-25.9z"/>
		<path fill-rule="evenodd" class="s2" d="m907.13 123.78h28.16v9.71h-39.1v-64.77h10.94v55.06z"/>
		<path fill-rule="evenodd" class="s2" d="m951.01 78.25v-9.53h48.65v9.53h-19.01v55.24h-10.65v-55.24h-18.99z"/>
		<path fill-rule="evenodd" class="s2" d="m1049.78 98.06l8.14-15.36 8.52-13.98h11.6v1.58l-23.02 36.92v26.27h-10.84v-26.27l-23.11-36.92v-1.58h11.69l8.8 14.45 7.85 14.89h0.37z"/>
	</g>
	<path fill-rule="evenodd" class="s3" d="m833.65 192.68h-3.73q-1.67 6.52-5.49 9.9-3.83 3.36-9.54 3.37-6.4-0.01-10.2-4.09-3.79-4.07-3.79-10.95 0-4.34 1.67-8.71 1.66-4.37 4.79-8.28 3.24-4.13 7.03-6.3 3.78-2.17 7.66-2.17 2.14 0 4.12 0.67 1.98 0.67 3.87 2.04l2.24-1.83h1.25l-2.43 10.48h-1.35q-0.18-4.92-2.09-7.4-1.92-2.49-5.55-2.49-2.42 0-4.58 1.34-2.14 1.34-3.9 3.98-1.27 1.93-2.43 4.62-1.16 2.68-2.2 6.04-1.04 3.41-1.58 6.5-0.53 3.09-0.53 5.7 0 4.64 1.93 7 1.92 2.36 5.71 2.37c2.53 0 4.49-0.98 5.94-2.89 1.47-1.93 2.43-4.88 2.94-8.9h-4.64v-1.42h14.88zm3.07 4.51q-0.01-2.42 0.87-4.74 0.88-2.33 2.68-4.62 2.37-3.06 4.93-4.49 2.55-1.43 5.65-1.43 3.78 0 6.17 2.53 2.37 2.52 2.37 6.54 0 2.29-0.91 4.68-0.91 2.4-2.65 4.6-2.07 2.57-4.79 3.99-2.7 1.41-5.67 1.41-3.74 0-6.2-2.46-2.45-2.46-2.45-6.01zm13.98-14.16q-2 0-3.42 0.88-1.43 0.85-2.39 2.61-0.54 1.04-1.06 2.42-0.52 1.39-1.15 3.79-0.71 2.46-1.03 4.18-0.3 1.74-0.31 2.97 0 2.22 1.08 3.33 1.1 1.12 3.19 1.12c1.39 0 2.57-0.36 3.63-1.07q1.6-1.08 2.47-3.02 1.39-3.1 2.17-6.49 0.78-3.35 0.77-6.21 0-2.23-1-3.37-0.99-1.13-2.95-1.14zm28.58 21.91v-1.47h3.43l9.35-35.64h-4.21v-1.55h14.98q5.53 0 8.28 2.07 2.75 2.09 2.75 6.27 0 4.17-3.14 6.74-3.11 2.56-9.07 3.32v0.44q4.51 0.84 6.84 3.16 2.35 2.33 2.35 5.94 0 5-3.96 7.86-3.96 2.86-10.89 2.86c0 0-16.7 0-16.71 0zm9.15-1.47h6.25q2.48 0 4.13-0.52 1.68-0.52 2.76-1.62 1.45-1.45 2.39-3.99 0.94-2.55 0.94-5.06-0.01-3.78-2.18-5.36-2.18-1.58-7.53-1.58h-2.02l-4.75 18.12zm5.18-19.6h4.69q4.87 0.01 7.37-2.69 2.49-2.73 2.48-7.96 0-3.22-1.24-4.31-1.26-1.08-5.62-1.07h-3.61l-4.08 16.04zm30.38 9.89q-0.41 1.6-0.65 2.91-0.21 1.28-0.21 2.3 0 2.58 1.24 3.92 1.27 1.35 3.67 1.35 2.22 0 4.22-1.52 1.99-1.51 3.35-4.23l1.26 0.69q-1.51 3.09-3.94 4.81c-1.61 1.16-3.4 1.72-5.32 1.72q-3.86 0-6.35-2.62-2.47-2.62-2.46-6.79 0-2.35 0.86-4.59 0.86-2.26 2.58-4.29 2.29-2.75 4.99-4.16 2.72-1.42 5.74-1.42 2.48 0 4.01 1.29 1.53 1.3 1.53 3.38 0 3.3-3.75 5.26-3.76 1.97-10.21 1.97h-0.56zm1.07-1.43q4.28 0 6.71-1.72 2.43-1.73 2.42-4.71 0-1.36-0.67-2.02-0.68-0.67-2-0.67-1.94 0-3.72 2.29c-1.17 1.53-2.29 3.82-3.31 6.83zm29.18 13.52q0 0 0 0.01 0 0.01 0 0.03zm-0.66-5.94q-1.77-15.82-3.82-15.82-1 0.01-2.14 1.71-1.13 1.69-2.49 5.28l-1.13-0.48q1.46-4.34 3.32-6.51 1.87-2.19 4.08-2.19 4.02 0 5.69 13.27 0.29 2.25 0.47 3.49l5.8-12.48q1.07-2.37 1.92-3.31 0.87-0.92 1.94-0.92 1.08-0.01 1.7 0.5 0.61 0.5 0.61 1.4 0 0.84-0.56 1.36-0.55 0.51-1.42 0.52-0.6-0.01-1.06-0.34-0.45-0.36-0.52-0.35-0.38 0-0.7 0.37-0.33 0.39-0.71 1.21l-9.42 20.55q-2.29 5.02-5.07 7.72-2.77 2.69-5.61 2.69-1.31-0.01-2.02-0.55-0.74-0.59-0.74-1.56 0-0.98 0.56-1.53 0.56-0.57 1.53-0.57 1.08 0 1.85 0.86 0.76 0.86 1.25 0.86 1.39 0 3.46-2.55 2.07-2.53 3.89-6.68-0.24-2.16-0.66-5.95zm19.06-2.72q0-2.42 0.88-4.74 0.88-2.33 2.68-4.62 2.38-3.06 4.93-4.49 2.56-1.43 5.65-1.43 3.79 0 6.18 2.53 2.36 2.52 2.35 6.54 0.01 2.29-0.9 4.68-0.91 2.4-2.66 4.6-2.07 2.57-4.78 3.99-2.7 1.41-5.68 1.41-3.75 0-6.18-2.46-2.45-2.46-2.47-6.01zm13.98-14.16q-2 0-3.42 0.88-1.43 0.85-2.38 2.61-0.54 1.04-1.07 2.42-0.53 1.39-1.16 3.79-0.7 2.46-1.02 4.18-0.32 1.74-0.32 2.97 0 2.22 1.1 3.33 1.07 1.12 3.17 1.12c1.39 0 2.57-0.36 3.64-1.07q1.6-1.08 2.47-3.02 1.38-3.1 2.17-6.49 0.78-3.35 0.78-6.21 0-2.23-1-3.37-0.99-1.13-2.96-1.14zm19.49 21.91h-4.35l5.59-21.02h-4.41v-1.48q3.04 0 5.22-0.14 2.15-0.15 3.98-0.45l-1.49 5.74q1.93-2.86 4.12-4.3 2.2-1.45 4.63-1.44c1.62 0 2.99 0.39 3.99 1.16q1.47 1.16 1.47 3.15-0.01 0.49-0.12 1.18-0.11 0.7-0.29 1.38l-3.8 12.92q-0.09 0.33-0.12 0.53-0.06 0.2-0.06 0.29 0 0.48 0.33 0.77 0.34 0.29 0.85 0.29 1.54 0 2.97-1.67 1.44-1.67 2.89-5.13l1.12 0.49q-1.63 4.41-3.7 6.42-2.05 2.03-4.82 2.03c-1.17 0-2.11-0.3-2.77-0.86q-1.02-0.85-1.03-2.28 0.01-0.48 0.12-1.13 0.11-0.67 0.29-1.33l3.5-12.02q0.17-0.71 0.26-1.23 0.1-0.51 0.09-0.79 0-1.23-0.62-1.82-0.6-0.58-1.86-0.58-2.58 0-5.17 2.75-2.6 2.76-3.71 6.9l-3.12 11.66zm42.24-3.27q-1.45 1.96-3.27 2.98-1.82 1.01-3.9 1.01-3.17-0.01-5.38-2.4-2.19-2.41-2.2-5.96 0-2.48 1.08-5.08 1.07-2.61 3.11-5.03 2.19-2.61 4.63-3.98 2.43-1.36 4.9-1.36 1.95 0 3.15 0.7 1.23 0.71 1.88 2.21l4.81-17.02h-4.74v-1.47c1.7 0 3.33-0.06 4.95-0.15q2.4-0.15 4.6-0.38l-9.84 35.01c0 0-0.05 0.08-0.06 0.14q-0.22 0.69-0.23 1.16 0.01 0.59 0.4 1.01 0.41 0.4 1.08 0.41 1.44-0.01 3.05-1.96 1.62-1.95 2.87-5.27l1.35 0.53q-1.61 4.34-3.76 6.61-2.15 2.27-4.7 2.28-1.82 0-2.81-0.95c-0.65-0.65-0.97-1.53-0.97-2.71 0 0 0-0.32 0-0.33zm-0.73-18.64q-1.78 0-3.27 1.12-1.47 1.14-2.72 3.45c-0.35 0.71-0.73 1.57-1.1 2.53q-0.53 1.46-1.01 3.18-0.69 2.39-1.03 4.01-0.33 1.62-0.33 2.59-0.01 2.09 0.96 3.17 0.95 1.08 2.83 1.09 2.17-0.02 3.91-1.59 1.76-1.6 2.95-4.69 1.09-2.76 1.82-6.05 0.72-3.29 0.72-4.94 0-1.88-0.94-2.88-0.94-0.98-2.79-0.99z"/>
</svg>